<svg width="674" height="124" viewBox="0 0 674 124" fill="none" xmlns="http://www.w3.org/2000/svg">
<mask id="path-1-inside-1_7_23" fill="#2ca2f1">
<path fill-rule="evenodd" clip-rule="evenodd" d="M60 27H48L16.5 82L22 92.5H86L92 82L60 27ZM62.6603 72L54 57L45.3397 72H62.6603Z"/>
</mask>
<path fill-rule="evenodd" clip-rule="evenodd" d="M60 27H48L16.5 82L22 92.5H86L92 82L60 27ZM62.6603 72L54 57L45.3397 72H62.6603Z" fill="#2ca2f1"/>
<path d="M48 27V26H47.4203L47.1322 26.503L48 27ZM60 27L60.8643 26.4971L60.5751 26H60V27ZM16.5 82L15.6322 81.503L15.3599 81.9786L15.6142 82.464L16.5 82ZM22 92.5L21.1142 92.964L21.3949 93.5H22V92.5ZM86 92.5V93.5H86.5803L86.8682 92.9961L86 92.5ZM92 82L92.8682 82.4961L93.1543 81.9955L92.8643 81.4971L92 82ZM54 57L54.866 56.5L54 55L53.134 56.5L54 57ZM62.6603 72V73H64.3923L63.5263 71.5L62.6603 72ZM45.3397 72L44.4737 71.5L43.6077 73H45.3397V72ZM48 28H60V26H48V28ZM17.3678 82.497L48.8678 27.497L47.1322 26.503L15.6322 81.503L17.3678 82.497ZM22.8858 92.036L17.3858 81.536L15.6142 82.464L21.1142 92.964L22.8858 92.036ZM86 91.5H22V93.5H86V91.5ZM91.1318 81.5039L85.1318 92.0039L86.8682 92.9961L92.8682 82.4961L91.1318 81.5039ZM59.1357 27.5029L91.1357 82.5029L92.8643 81.4971L60.8643 26.4971L59.1357 27.5029ZM53.134 57.5L61.7942 72.5L63.5263 71.5L54.866 56.5L53.134 57.5ZM46.2058 72.5L54.866 57.5L53.134 56.5L44.4737 71.5L46.2058 72.5ZM62.6603 71H45.3397V73H62.6603V71Z" fill="#2ca2f1" mask="url(#path-1-inside-1_7_23)"/>
<mask id="path-3-inside-2_7_23" fill="#2ca2f1">
<path fill-rule="evenodd" clip-rule="evenodd" d="M252 27H240L209 82L214 92.5H278L284 82L252 27ZM254.66 72L246 57L237.34 72H254.66Z"/>
</mask>
<path fill-rule="evenodd" clip-rule="evenodd" d="M252 27H240L209 82L214 92.5H278L284 82L252 27ZM254.66 72L246 57L237.34 72H254.66Z" fill="#2ca2f1"/>
<path d="M240 27V26H239.416L239.129 26.509L240 27ZM252 27L252.864 26.4971L252.575 26H252V27ZM209 82L208.129 81.509L207.874 81.9612L208.097 82.4299L209 82ZM214 92.5L213.097 92.9299L213.369 93.5H214V92.5ZM278 92.5V93.5H278.58L278.868 92.9961L278 92.5ZM284 82L284.868 82.4961L285.154 81.9955L284.864 81.4971L284 82ZM246 57L246.866 56.5L246 55L245.134 56.5L246 57ZM254.66 72V73H256.392L255.526 71.5L254.66 72ZM237.34 72L236.474 71.5L235.608 73H237.34V72ZM240 28H252V26H240V28ZM209.871 82.491L240.871 27.491L239.129 26.509L208.129 81.509L209.871 82.491ZM214.903 92.0701L209.903 81.5701L208.097 82.4299L213.097 92.9299L214.903 92.0701ZM278 91.5H214V93.5H278V91.5ZM283.132 81.5039L277.132 92.0039L278.868 92.9961L284.868 82.4961L283.132 81.5039ZM251.136 27.5029L283.136 82.5029L284.864 81.4971L252.864 26.4971L251.136 27.5029ZM245.134 57.5L253.794 72.5L255.526 71.5L246.866 56.5L245.134 57.5ZM238.206 72.5L246.866 57.5L245.134 56.5L236.474 71.5L238.206 72.5ZM254.66 71H237.34V73H254.66V71Z" fill="#2ca2f1" mask="url(#path-3-inside-2_7_23)"/>
<path d="M204.305 90.8673L208.893 97.2906L208.955 97.3771L209.046 97.431L210.746 98.431L210.864 98.5H211H218.222L210.679 115H199.783L194.095 105.52L204.305 90.8673Z" fill="#2ca2f1" stroke="#2ca2f1"/>
<path d="M12.3051 90.8673L16.8931 97.2906L16.9549 97.3771L17.0465 97.431L18.7465 98.431L18.8638 98.5H19H26.2217L18.6788 115H7.7831L2.09527 105.52L12.3051 90.8673Z" fill="#2ca2f1" stroke="#2ca2f1"/>
<path d="M287.123 90.814L281.015 97.3416L280.968 97.3919L280.909 97.4276L279.259 98.4276L279.14 98.5H279H272.586L280.318 115H290.717L296.413 105.507L287.123 90.814Z" fill="#2ca2f1" stroke="#2ca2f1"/>
<path d="M95.1231 90.814L89.0151 97.3416L88.968 97.3919L88.9092 97.4276L87.2592 98.4276L87.1397 98.5H87H80.5865L88.3179 115H98.7169L104.413 105.507L95.1231 90.814Z" fill="#2ca2f1" stroke="#2ca2f1"/>
<line x1="199.147" y1="115.479" x2="210.147" y2="97.4786" stroke="black" strokeWidth="2"/>
<line x1="7.14672" y1="115.479" x2="18.1467" y2="97.4786" stroke="black" strokeWidth="2"/>
<line y1="-1" x2="20.2485" y2="-1" transform="matrix(-0.543251 -0.83957 -0.83957 0.543251 290 115)" stroke="black" strokeWidth="2"/>
<line y1="-1" x2="20.2485" y2="-1" transform="matrix(-0.543251 -0.83957 -0.83957 0.543251 98 115)" stroke="black" strokeWidth="2"/>
<path d="M183.22 58.1733H167.282C166.828 55.5597 165.99 53.2443 164.768 51.2273C163.547 49.1818 162.027 47.4489 160.208 46.0284C158.39 44.608 156.316 43.5426 153.987 42.8324C151.686 42.0938 149.2 41.7244 146.529 41.7244C141.785 41.7244 137.581 42.9176 133.916 45.304C130.251 47.6619 127.382 51.1278 125.308 55.7017C123.234 60.2472 122.197 65.8011 122.197 72.3636C122.197 79.0398 123.234 84.6648 125.308 89.2386C127.41 93.7841 130.279 97.2216 133.916 99.5511C137.581 101.852 141.771 103.003 146.487 103.003C149.1 103.003 151.544 102.662 153.816 101.98C156.118 101.27 158.177 100.233 159.995 98.8693C161.842 97.5057 163.39 95.8295 164.64 93.8409C165.919 91.8523 166.799 89.5795 167.282 87.0227L183.22 87.108C182.623 91.2557 181.331 95.1477 179.342 98.7841C177.382 102.42 174.811 105.631 171.629 108.415C168.447 111.17 164.726 113.33 160.464 114.892C156.203 116.426 151.473 117.193 146.274 117.193C138.603 117.193 131.757 115.418 125.734 111.866C119.711 108.315 114.967 103.188 111.501 96.483C108.035 89.7784 106.302 81.7386 106.302 72.3636C106.302 62.9602 108.049 54.9205 111.544 48.2443C115.038 41.5398 119.797 36.4119 125.819 32.8608C131.842 29.3097 138.66 27.5341 146.274 27.5341C151.132 27.5341 155.649 28.2159 159.825 29.5795C164.001 30.9432 167.723 32.946 170.99 35.5881C174.257 38.2017 176.941 41.4119 179.044 45.2188C181.174 48.9972 182.566 53.3153 183.22 58.1733Z" fill="#2ca2f1"/>
<path d="M183.22 58.1733V59.1733H184.363L184.211 58.04L183.22 58.1733ZM167.282 58.1733L166.297 58.3446L166.441 59.1733H167.282V58.1733ZM164.768 51.2273L163.91 51.74L163.913 51.7453L164.768 51.2273ZM160.208 46.0284L160.824 45.2404L160.208 46.0284ZM153.987 42.8324L153.681 43.7845L153.688 43.7868L153.695 43.7889L153.987 42.8324ZM133.916 45.304L134.457 46.145L134.462 46.142L133.916 45.304ZM125.308 55.7017L126.218 56.1168L126.219 56.1147L125.308 55.7017ZM125.308 89.2386L124.397 89.6516L124.4 89.6584L125.308 89.2386ZM133.916 99.5511L133.376 100.393L133.384 100.398L133.916 99.5511ZM153.816 101.98L154.104 102.938L154.111 102.936L153.816 101.98ZM159.995 98.8693L159.401 98.0649L159.395 98.0693L159.995 98.8693ZM164.64 93.8409L163.799 93.3001L163.794 93.3087L164.64 93.8409ZM167.282 87.0227L167.288 86.0227L166.454 86.0183L166.3 86.8371L167.282 87.0227ZM183.22 87.108L184.21 87.2503L184.373 86.1141L183.225 86.108L183.22 87.108ZM179.342 98.7841L178.465 98.3043L178.462 98.3096L179.342 98.7841ZM171.629 108.415L172.284 109.171L172.287 109.167L171.629 108.415ZM160.464 114.892L160.803 115.833L160.808 115.831L160.464 114.892ZM125.734 111.866L126.242 111.005L125.734 111.866ZM111.501 96.483L110.613 96.9422L111.501 96.483ZM111.544 48.2443L112.43 48.708L112.43 48.7065L111.544 48.2443ZM125.819 32.8608L125.311 31.9994L125.819 32.8608ZM159.825 29.5795L160.135 28.6289H160.135L159.825 29.5795ZM170.99 35.5881L170.361 36.3656L170.365 36.3689L170.99 35.5881ZM179.044 45.2188L178.168 45.7022L178.173 45.7099L179.044 45.2188ZM183.22 57.1733H167.282V59.1733H183.22V57.1733ZM168.268 58.002C167.794 55.2809 166.917 52.8452 165.623 50.7092L163.913 51.7453C165.062 53.6434 165.861 55.8384 166.297 58.3446L168.268 58.002ZM165.627 50.7145C164.344 48.5666 162.743 46.7393 160.824 45.2404L159.593 46.8164C161.311 48.1584 162.749 49.797 163.91 51.74L165.627 50.7145ZM160.824 45.2404C158.904 43.7402 156.719 42.6199 154.278 41.8759L153.695 43.7889C155.914 44.4654 157.877 45.4757 159.593 46.8164L160.824 45.2404ZM154.292 41.8802C151.883 41.1068 149.293 40.7244 146.529 40.7244V42.7244C149.107 42.7244 151.489 43.0807 153.681 43.7845L154.292 41.8802ZM146.529 40.7244C141.609 40.7244 137.211 41.9649 133.37 44.466L134.462 46.142C137.95 43.8703 141.962 42.7244 146.529 42.7244V40.7244ZM133.375 44.463C129.525 46.9402 126.538 50.567 124.397 55.2888L126.219 56.1147C128.225 51.6887 130.978 48.3836 134.457 46.1449L133.375 44.463ZM124.398 55.2866C122.249 59.9964 121.197 65.7008 121.197 72.3636H123.197C123.197 65.9015 124.219 60.4979 126.218 56.1168L124.398 55.2866ZM121.197 72.3636C121.197 79.1376 122.248 84.9127 124.397 89.6516L126.219 88.8257C124.22 84.4168 123.197 78.9419 123.197 72.3636H121.197ZM124.4 89.6584C126.569 94.3486 129.555 97.9453 133.376 100.393L134.455 98.7091C131.004 96.4979 128.251 93.2196 126.216 88.8189L124.4 89.6584ZM133.384 100.398C137.222 102.808 141.6 104.003 146.487 104.003V102.003C141.942 102.003 137.939 100.896 134.448 98.7042L133.384 100.398ZM146.487 104.003C149.188 104.003 151.729 103.65 154.104 102.938L153.529 101.022C151.358 101.673 149.013 102.003 146.487 102.003V104.003ZM154.111 102.936C156.516 102.194 158.68 101.106 160.595 99.6693L159.395 98.0693C157.675 99.3599 155.719 100.346 153.521 101.025L154.111 102.936ZM160.589 99.6738C162.539 98.2342 164.172 96.4649 165.487 94.3731L163.794 93.3087C162.609 95.1942 161.145 96.7772 159.401 98.0649L160.589 99.6738ZM165.481 94.3817C166.836 92.2744 167.761 89.8788 168.265 87.2083L166.3 86.8371C165.838 89.2803 165.001 91.4301 163.799 93.3001L165.481 94.3817ZM167.277 88.0227L183.214 88.1079L183.225 86.108L167.288 86.0227L167.277 88.0227ZM182.23 86.9656C181.65 90.9964 180.395 94.7739 178.465 98.3043L180.219 99.2639C182.266 95.5215 183.596 91.515 184.21 87.2503L182.23 86.9656ZM178.462 98.3096C176.56 101.838 174.064 104.955 170.97 107.662L172.287 109.167C175.557 106.306 178.204 103.003 180.222 99.2586L178.462 98.3096ZM170.974 107.659C167.891 110.329 164.276 112.429 160.12 113.953L160.808 115.831C165.175 114.23 169.003 112.012 172.284 109.171L170.974 107.659ZM160.125 113.951C155.987 115.441 151.374 116.193 146.274 116.193V118.193C151.571 118.193 156.418 117.411 160.803 115.833L160.125 113.951ZM146.274 116.193C138.764 116.193 132.096 114.457 126.242 111.005L125.226 112.728C131.417 116.378 138.443 118.193 146.274 118.193V116.193ZM126.242 111.005C120.394 107.557 115.776 102.575 112.389 96.0237L110.613 96.9422C114.158 103.8 119.028 109.074 125.226 112.728L126.242 111.005ZM112.389 96.0237C109.013 89.4914 107.302 81.6168 107.302 72.3636H105.302C105.302 81.8605 107.058 90.0654 110.613 96.9422L112.389 96.0237ZM107.302 72.3636C107.302 63.0825 109.027 55.2099 112.43 48.708L110.658 47.7806C107.072 54.631 105.302 62.838 105.302 72.3636H107.302ZM112.43 48.7065C115.846 42.1538 120.479 37.1706 126.327 33.7222L125.311 31.9994C119.114 35.6533 114.23 40.9257 110.657 47.7821L112.43 48.7065ZM126.327 33.7222C132.182 30.2698 138.822 28.5341 146.274 28.5341V26.5341C138.498 26.5341 131.501 28.3495 125.311 31.9994L126.327 33.7222ZM146.274 28.5341C151.037 28.5341 155.449 29.2025 159.515 30.5301L160.135 28.6289C155.849 27.2293 151.226 26.5341 146.274 26.5341V28.5341ZM159.515 30.5301C163.58 31.8577 167.193 33.8036 170.361 36.3656L171.619 34.8105C168.252 32.0884 164.422 30.0286 160.135 28.6289L159.515 30.5301ZM170.365 36.3689C173.526 38.8976 176.127 42.0054 178.168 45.7022L179.919 44.7353C177.756 40.8185 174.988 37.5058 171.614 34.8072L170.365 36.3689ZM178.173 45.7099C180.233 49.3643 181.59 53.5582 182.229 58.3066L184.211 58.04C183.543 53.0725 182.115 48.63 179.915 44.7276L178.173 45.7099Z" fill="black"/>
<path d="M191.22 58.1733H175.282C174.828 55.5597 173.99 53.2443 172.768 51.2273C171.547 49.1818 170.027 47.4489 168.208 46.0284C166.39 44.608 164.316 43.5426 161.987 42.8324C159.686 42.0938 157.2 41.7244 154.529 41.7244C149.785 41.7244 145.581 42.9176 141.916 45.304C138.251 47.6619 135.382 51.1278 133.308 55.7017C131.234 60.2472 130.197 65.8011 130.197 72.3636C130.197 79.0398 131.234 84.6648 133.308 89.2386C135.41 93.7841 138.279 97.2216 141.916 99.5511C145.581 101.852 149.771 103.003 154.487 103.003C157.1 103.003 159.544 102.662 161.816 101.98C164.118 101.27 166.177 100.233 167.995 98.8693C169.842 97.5057 171.39 95.8295 172.64 93.8409C173.919 91.8523 174.799 89.5795 175.282 87.0227L191.22 87.108C190.623 91.2557 189.331 95.1477 187.342 98.7841C185.382 102.42 182.811 105.631 179.629 108.415C176.447 111.17 172.726 113.33 168.464 114.892C164.203 116.426 159.473 117.193 154.274 117.193C146.603 117.193 139.757 115.418 133.734 111.866C127.711 108.315 122.967 103.188 119.501 96.483C116.035 89.7784 114.302 81.7386 114.302 72.3636C114.302 62.9602 116.049 54.9205 119.544 48.2443C123.038 41.5398 127.797 36.4119 133.819 32.8608C139.842 29.3097 146.66 27.5341 154.274 27.5341C159.132 27.5341 163.649 28.2159 167.825 29.5795C172.001 30.9432 175.723 32.946 178.99 35.5881C182.257 38.2017 184.941 41.4119 187.044 45.2188C189.174 48.9972 190.566 53.3153 191.22 58.1733Z" fill="#2ca2f1"/>
<path d="M191.22 58.1733V59.1733H192.363L192.211 58.04L191.22 58.1733ZM175.282 58.1733L174.297 58.3446L174.441 59.1733H175.282V58.1733ZM172.768 51.2273L171.91 51.74L171.913 51.7453L172.768 51.2273ZM168.208 46.0284L168.824 45.2404L168.208 46.0284ZM161.987 42.8324L161.681 43.7845L161.688 43.7868L161.695 43.7889L161.987 42.8324ZM141.916 45.304L142.457 46.145L142.462 46.142L141.916 45.304ZM133.308 55.7017L134.218 56.1168L134.219 56.1147L133.308 55.7017ZM133.308 89.2386L132.397 89.6516L132.4 89.6584L133.308 89.2386ZM141.916 99.5511L141.376 100.393L141.384 100.398L141.916 99.5511ZM161.816 101.98L162.104 102.938L162.111 102.936L161.816 101.98ZM167.995 98.8693L167.401 98.0649L167.395 98.0693L167.995 98.8693ZM172.64 93.8409L171.799 93.3001L171.794 93.3087L172.64 93.8409ZM175.282 87.0227L175.288 86.0227L174.454 86.0183L174.3 86.8371L175.282 87.0227ZM191.22 87.108L192.21 87.2503L192.373 86.1141L191.225 86.108L191.22 87.108ZM187.342 98.7841L186.465 98.3043L186.462 98.3096L187.342 98.7841ZM179.629 108.415L180.284 109.171L180.287 109.167L179.629 108.415ZM168.464 114.892L168.803 115.833L168.808 115.831L168.464 114.892ZM133.734 111.866L134.242 111.005L133.734 111.866ZM119.501 96.483L118.613 96.9422L119.501 96.483ZM119.544 48.2443L120.43 48.708L120.43 48.7065L119.544 48.2443ZM133.819 32.8608L133.311 31.9994L133.819 32.8608ZM167.825 29.5795L168.135 28.6289H168.135L167.825 29.5795ZM178.99 35.5881L178.361 36.3656L178.365 36.3689L178.99 35.5881ZM187.044 45.2188L186.168 45.7022L186.173 45.7099L187.044 45.2188ZM191.22 57.1733H175.282V59.1733H191.22V57.1733ZM176.268 58.002C175.794 55.2809 174.917 52.8452 173.623 50.7092L171.913 51.7453C173.062 53.6434 173.861 55.8384 174.297 58.3446L176.268 58.002ZM173.627 50.7145C172.344 48.5666 170.743 46.7393 168.824 45.2404L167.593 46.8164C169.311 48.1584 170.749 49.797 171.91 51.74L173.627 50.7145ZM168.824 45.2404C166.904 43.7402 164.719 42.6199 162.278 41.8759L161.695 43.7889C163.914 44.4654 165.877 45.4757 167.593 46.8164L168.824 45.2404ZM162.292 41.8802C159.883 41.1068 157.293 40.7244 154.529 40.7244V42.7244C157.107 42.7244 159.489 43.0807 161.681 43.7845L162.292 41.8802ZM154.529 40.7244C149.609 40.7244 145.211 41.9649 141.37 44.466L142.462 46.142C145.95 43.8703 149.962 42.7244 154.529 42.7244V40.7244ZM141.375 44.463C137.525 46.9402 134.538 50.567 132.397 55.2888L134.219 56.1147C136.225 51.6887 138.978 48.3836 142.457 46.1449L141.375 44.463ZM132.398 55.2866C130.249 59.9964 129.197 65.7008 129.197 72.3636H131.197C131.197 65.9015 132.219 60.4979 134.218 56.1168L132.398 55.2866ZM129.197 72.3636C129.197 79.1376 130.248 84.9127 132.397 89.6516L134.219 88.8257C132.22 84.4168 131.197 78.9419 131.197 72.3636H129.197ZM132.4 89.6584C134.569 94.3486 137.555 97.9453 141.376 100.393L142.455 98.7091C139.004 96.4979 136.251 93.2196 134.216 88.8189L132.4 89.6584ZM141.384 100.398C145.222 102.808 149.6 104.003 154.487 104.003V102.003C149.942 102.003 145.939 100.896 142.448 98.7042L141.384 100.398ZM154.487 104.003C157.188 104.003 159.729 103.65 162.104 102.938L161.529 101.022C159.358 101.673 157.013 102.003 154.487 102.003V104.003ZM162.111 102.936C164.516 102.194 166.68 101.106 168.595 99.6693L167.395 98.0693C165.675 99.3599 163.719 100.346 161.521 101.025L162.111 102.936ZM168.589 99.6738C170.539 98.2342 172.172 96.4649 173.487 94.3731L171.794 93.3087C170.609 95.1942 169.145 96.7772 167.401 98.0649L168.589 99.6738ZM173.481 94.3817C174.836 92.2744 175.761 89.8788 176.265 87.2083L174.3 86.8371C173.838 89.2803 173.001 91.4301 171.799 93.3001L173.481 94.3817ZM175.277 88.0227L191.214 88.1079L191.225 86.108L175.288 86.0227L175.277 88.0227ZM190.23 86.9656C189.65 90.9964 188.395 94.7739 186.465 98.3043L188.219 99.2639C190.266 95.5215 191.596 91.515 192.21 87.2503L190.23 86.9656ZM186.462 98.3096C184.56 101.838 182.064 104.955 178.97 107.662L180.287 109.167C183.557 106.306 186.204 103.003 188.222 99.2586L186.462 98.3096ZM178.974 107.659C175.891 110.329 172.276 112.429 168.12 113.953L168.808 115.831C173.175 114.23 177.003 112.012 180.284 109.171L178.974 107.659ZM168.125 113.951C163.987 115.441 159.374 116.193 154.274 116.193V118.193C159.571 118.193 164.418 117.411 168.803 115.833L168.125 113.951ZM154.274 116.193C146.764 116.193 140.096 114.457 134.242 111.005L133.226 112.728C139.417 116.378 146.443 118.193 154.274 118.193V116.193ZM134.242 111.005C128.394 107.557 123.776 102.575 120.389 96.0237L118.613 96.9422C122.158 103.8 127.028 109.074 133.226 112.728L134.242 111.005ZM120.389 96.0237C117.013 89.4914 115.302 81.6168 115.302 72.3636H113.302C113.302 81.8605 115.058 90.0654 118.613 96.9422L120.389 96.0237ZM115.302 72.3636C115.302 63.0825 117.027 55.2099 120.43 48.708L118.658 47.7806C115.072 54.631 113.302 62.838 113.302 72.3636H115.302ZM120.43 48.7065C123.846 42.1538 128.479 37.1706 134.327 33.7222L133.311 31.9994C127.114 35.6533 122.23 40.9257 118.657 47.7821L120.43 48.7065ZM134.327 33.7222C140.182 30.2698 146.822 28.5341 154.274 28.5341V26.5341C146.498 26.5341 139.501 28.3495 133.311 31.9994L134.327 33.7222ZM154.274 28.5341C159.037 28.5341 163.449 29.2025 167.515 30.5301L168.135 28.6289C163.849 27.2293 159.226 26.5341 154.274 26.5341V28.5341ZM167.515 30.5301C171.58 31.8577 175.193 33.8036 178.361 36.3656L179.619 34.8105C176.252 32.0884 172.422 30.0286 168.135 28.6289L167.515 30.5301ZM178.365 36.3689C181.526 38.8976 184.127 42.0054 186.168 45.7022L187.919 44.7353C185.756 40.8185 182.988 37.5058 179.614 34.8072L178.365 36.3689ZM186.173 45.7099C188.233 49.3643 189.59 53.5582 190.229 58.3066L192.211 58.04C191.543 53.0725 190.115 48.63 187.915 44.7276L186.173 45.7099Z" fill="black"/>
<path d="M336.705 116H307.131V28.7273H337.302C345.967 28.7273 353.41 30.4744 359.631 33.9688C365.881 37.4347 370.683 42.4205 374.035 48.9261C377.387 55.4318 379.063 63.2159 379.063 72.2784C379.063 81.3693 377.373 89.1818 373.992 95.7159C370.64 102.25 365.796 107.264 359.461 110.759C353.154 114.253 345.569 116 336.705 116ZM322.941 102.321H335.938C342.018 102.321 347.089 101.213 351.151 98.9972C355.214 96.7528 358.268 93.4148 360.313 88.983C362.359 84.5227 363.381 78.9545 363.381 72.2784C363.381 65.6023 362.359 60.0625 360.313 55.6591C358.268 51.2273 355.242 47.9176 351.237 45.7301C347.259 43.5142 342.316 42.4062 336.407 42.4062H322.941V102.321Z" fill="#2ca2f1"/>
<path d="M307.131 116H306.131V117H307.131V116ZM307.131 28.7273V27.7273H306.131V28.7273H307.131ZM359.631 33.9688L359.142 34.8407L359.146 34.8433L359.631 33.9688ZM374.035 48.9261L373.146 49.3842L374.035 48.9261ZM373.992 95.7159L373.104 95.2564L373.102 95.2594L373.992 95.7159ZM359.461 110.759L358.978 109.883L358.976 109.884L359.461 110.759ZM322.941 102.321H321.941V103.321H322.941V102.321ZM351.151 98.9972L351.63 99.8751L351.635 99.8725L351.151 98.9972ZM360.313 88.983L361.221 89.402L361.222 89.3998L360.313 88.983ZM360.313 55.6591L359.405 56.0781L359.406 56.0804L360.313 55.6591ZM351.237 45.7301L350.75 46.6037L350.757 46.6078L351.237 45.7301ZM322.941 42.4062V41.4062H321.941V42.4062H322.941ZM336.705 115H307.131V117H336.705V115ZM308.131 116V28.7273H306.131V116H308.131ZM307.131 29.7273H337.302V27.7273H307.131V29.7273ZM337.302 29.7273C345.832 29.7273 353.099 31.4466 359.142 34.8406L360.121 33.0969C353.721 29.5023 346.102 27.7273 337.302 27.7273V29.7273ZM359.146 34.8433C365.219 38.2109 369.882 43.0497 373.146 49.3842L374.924 48.4681C371.483 41.7912 366.544 36.6584 360.116 33.0942L359.146 34.8433ZM373.146 49.3842C376.41 55.7184 378.063 63.338 378.063 72.2784H380.063C380.063 63.0938 378.364 55.1452 374.924 48.4681L373.146 49.3842ZM378.063 72.2784C378.063 81.2465 376.396 88.8939 373.104 95.2564L374.88 96.1754C378.35 89.4697 380.063 81.4922 380.063 72.2784H378.063ZM373.102 95.2594C369.84 101.619 365.136 106.486 358.978 109.883L359.944 111.634C366.456 108.042 371.44 102.881 374.882 96.1724L373.102 95.2594ZM358.976 109.884C352.848 113.279 345.438 115 336.705 115V117C345.7 117 353.46 115.227 359.946 111.633L358.976 109.884ZM322.941 103.321H335.938V101.321H322.941V103.321ZM335.938 103.321C342.134 103.321 347.382 102.192 351.63 99.8751L350.672 98.1193C346.796 100.234 341.901 101.321 335.938 101.321V103.321ZM351.635 99.8725C355.894 97.5196 359.091 94.0166 361.221 89.402L359.405 88.5639C357.444 92.813 354.534 95.9861 350.668 98.1218L351.635 99.8725ZM361.222 89.3998C363.345 84.7706 364.381 79.0495 364.381 72.2784H362.381C362.381 78.8596 361.372 84.2749 359.404 88.5661L361.222 89.3998ZM364.381 72.2784C364.381 65.5081 363.345 59.813 361.22 55.2378L359.406 56.0804C361.372 60.312 362.381 65.6964 362.381 72.2784H364.381ZM361.221 55.24C359.092 50.6277 355.923 47.1502 351.716 44.8525L350.757 46.6078C354.561 48.685 357.443 51.8269 359.405 56.0781L361.221 55.24ZM351.723 44.8565C347.559 42.5366 342.437 41.4062 336.407 41.4062V43.4062C342.195 43.4062 346.959 44.4918 350.75 46.6037L351.723 44.8565ZM336.407 41.4062H322.941V43.4062H336.407V41.4062ZM321.941 42.4062V102.321H323.941V42.4062H321.941Z" fill="black"/>
<path d="M344.705 116H315.131V28.7273H345.302C353.967 28.7273 361.41 30.4744 367.631 33.9688C373.881 37.4347 378.683 42.4205 382.035 48.9261C385.387 55.4318 387.063 63.2159 387.063 72.2784C387.063 81.3693 385.373 89.1818 381.992 95.7159C378.64 102.25 373.796 107.264 367.461 110.759C361.154 114.253 353.569 116 344.705 116ZM330.941 102.321H343.938C350.018 102.321 355.089 101.213 359.151 98.9972C363.214 96.7528 366.268 93.4148 368.313 88.983C370.359 84.5227 371.381 78.9545 371.381 72.2784C371.381 65.6023 370.359 60.0625 368.313 55.6591C366.268 51.2273 363.242 47.9176 359.237 45.7301C355.259 43.5142 350.316 42.4062 344.407 42.4062H330.941V102.321Z" fill="#2ca2f1"/>
<path d="M315.131 116H314.131V117H315.131V116ZM315.131 28.7273V27.7273H314.131V28.7273H315.131ZM367.631 33.9688L367.142 34.8407L367.146 34.8433L367.631 33.9688ZM382.035 48.9261L381.146 49.3842L382.035 48.9261ZM381.992 95.7159L381.104 95.2564L381.102 95.2594L381.992 95.7159ZM367.461 110.759L366.978 109.883L366.976 109.884L367.461 110.759ZM330.941 102.321H329.941V103.321H330.941V102.321ZM359.151 98.9972L359.63 99.8751L359.635 99.8725L359.151 98.9972ZM368.313 88.983L369.221 89.402L369.222 89.3998L368.313 88.983ZM368.313 55.6591L367.405 56.0781L367.406 56.0804L368.313 55.6591ZM359.237 45.7301L358.75 46.6037L358.757 46.6078L359.237 45.7301ZM330.941 42.4062V41.4062H329.941V42.4062H330.941ZM344.705 115H315.131V117H344.705V115ZM316.131 116V28.7273H314.131V116H316.131ZM315.131 29.7273H345.302V27.7273H315.131V29.7273ZM345.302 29.7273C353.832 29.7273 361.099 31.4466 367.142 34.8406L368.121 33.0969C361.721 29.5023 354.102 27.7273 345.302 27.7273V29.7273ZM367.146 34.8433C373.219 38.2109 377.882 43.0497 381.146 49.3842L382.924 48.4681C379.483 41.7912 374.544 36.6584 368.116 33.0942L367.146 34.8433ZM381.146 49.3842C384.41 55.7184 386.063 63.338 386.063 72.2784H388.063C388.063 63.0938 386.364 55.1452 382.924 48.4681L381.146 49.3842ZM386.063 72.2784C386.063 81.2465 384.396 88.8939 381.104 95.2564L382.88 96.1754C386.35 89.4697 388.063 81.4922 388.063 72.2784H386.063ZM381.102 95.2594C377.84 101.619 373.136 106.486 366.978 109.883L367.944 111.634C374.456 108.042 379.44 102.881 382.882 96.1724L381.102 95.2594ZM366.976 109.884C360.848 113.279 353.438 115 344.705 115V117C353.7 117 361.46 115.227 367.946 111.633L366.976 109.884ZM330.941 103.321H343.938V101.321H330.941V103.321ZM343.938 103.321C350.134 103.321 355.382 102.192 359.63 99.8751L358.672 98.1193C354.796 100.234 349.901 101.321 343.938 101.321V103.321ZM359.635 99.8725C363.894 97.5196 367.091 94.0166 369.221 89.402L367.405 88.5639C365.444 92.813 362.534 95.9861 358.668 98.1218L359.635 99.8725ZM369.222 89.3998C371.345 84.7706 372.381 79.0495 372.381 72.2784H370.381C370.381 78.8596 369.372 84.2749 367.404 88.5661L369.222 89.3998ZM372.381 72.2784C372.381 65.5081 371.345 59.813 369.22 55.2378L367.406 56.0804C369.372 60.312 370.381 65.6964 370.381 72.2784H372.381ZM369.221 55.24C367.092 50.6277 363.923 47.1502 359.716 44.8525L358.757 46.6078C362.561 48.685 365.443 51.8269 367.405 56.0781L369.221 55.24ZM359.723 44.8565C355.559 42.5366 350.437 41.4062 344.407 41.4062V43.4062C350.195 43.4062 354.959 44.4918 358.75 46.6037L359.723 44.8565ZM344.407 41.4062H330.941V43.4062H344.407V41.4062ZM329.941 42.4062V102.321H331.941V42.4062H329.941Z" fill="black"/>
<path d="M400.163 119V31.7273H456.924V44.9801H415.972V68.6733H453.984V81.9261H415.972V105.747H457.265V119H400.163Z" fill="#2ca2f1"/>
<path d="M400.163 119H399.163V120H400.163V119ZM400.163 31.7273V30.7273H399.163V31.7273H400.163ZM456.924 31.7273H457.924V30.7273H456.924V31.7273ZM456.924 44.9801V45.9801H457.924V44.9801H456.924ZM415.972 44.9801V43.9801H414.972V44.9801H415.972ZM415.972 68.6733H414.972V69.6733H415.972V68.6733ZM453.984 68.6733H454.984V67.6733H453.984V68.6733ZM453.984 81.9261V82.9261H454.984V81.9261H453.984ZM415.972 81.9261V80.9261H414.972V81.9261H415.972ZM415.972 105.747H414.972V106.747H415.972V105.747ZM457.265 105.747H458.265V104.747H457.265V105.747ZM457.265 119V120H458.265V119H457.265ZM401.163 119V31.7273H399.163V119H401.163ZM400.163 32.7273H456.924V30.7273H400.163V32.7273ZM455.924 31.7273V44.9801H457.924V31.7273H455.924ZM456.924 43.9801H415.972V45.9801H456.924V43.9801ZM414.972 44.9801V68.6733H416.972V44.9801H414.972ZM415.972 69.6733H453.984V67.6733H415.972V69.6733ZM452.984 68.6733V81.9261H454.984V68.6733H452.984ZM453.984 80.9261H415.972V82.9261H453.984V80.9261ZM414.972 81.9261V105.747H416.972V81.9261H414.972ZM415.972 106.747H457.265V104.747H415.972V106.747ZM456.265 105.747V119H458.265V105.747H456.265ZM457.265 118H400.163V120H457.265V118Z" fill="black"/>
<path d="M409.163 119V31.7273H465.924V44.9801H424.972V68.6733H462.984V81.9261H424.972V105.747H466.265V119H409.163Z" fill="#2ca2f1"/>
<path d="M409.163 119H408.163V120H409.163V119ZM409.163 31.7273V30.7273H408.163V31.7273H409.163ZM465.924 31.7273H466.924V30.7273H465.924V31.7273ZM465.924 44.9801V45.9801H466.924V44.9801H465.924ZM424.972 44.9801V43.9801H423.972V44.9801H424.972ZM424.972 68.6733H423.972V69.6733H424.972V68.6733ZM462.984 68.6733H463.984V67.6733H462.984V68.6733ZM462.984 81.9261V82.9261H463.984V81.9261H462.984ZM424.972 81.9261V80.9261H423.972V81.9261H424.972ZM424.972 105.747H423.972V106.747H424.972V105.747ZM466.265 105.747H467.265V104.747H466.265V105.747ZM466.265 119V120H467.265V119H466.265ZM410.163 119V31.7273H408.163V119H410.163ZM409.163 32.7273H465.924V30.7273H409.163V32.7273ZM464.924 31.7273V44.9801H466.924V31.7273H464.924ZM465.924 43.9801H424.972V45.9801H465.924V43.9801ZM423.972 44.9801V68.6733H425.972V44.9801H423.972ZM424.972 69.6733H462.984V67.6733H424.972V69.6733ZM461.984 68.6733V81.9261H463.984V68.6733H461.984ZM462.984 80.9261H424.972V82.9261H462.984V80.9261ZM423.972 81.9261V105.747H425.972V81.9261H423.972ZM424.972 106.747H466.265V104.747H424.972V106.747ZM465.265 105.747V119H467.265V105.747H465.265ZM466.265 118H409.163V120H466.265V118Z" fill="black"/>
<path d="M479.233 32.7273H498.58L524.489 95.9659H525.511L551.42 32.7273H570.767V120H555.597V60.0426H554.787L530.668 119.744H519.332L495.213 59.9148H494.403V120H479.233V32.7273Z" fill="#2ca2f1"/>
<path d="M479.233 32.7273V31.7273H478.233V32.7273H479.233ZM498.58 32.7273L499.505 32.3482L499.251 31.7273H498.58V32.7273ZM524.489 95.9659L523.563 96.345L523.818 96.9659H524.489V95.9659ZM525.511 95.9659V96.9659H526.182L526.437 96.345L525.511 95.9659ZM551.42 32.7273V31.7273H550.749L550.495 32.3482L551.42 32.7273ZM570.767 32.7273H571.767V31.7273H570.767V32.7273ZM570.767 120V121H571.767V120H570.767ZM555.597 120H554.597V121H555.597V120ZM555.597 60.0426H556.597V59.0426H555.597V60.0426ZM554.787 60.0426V59.0426H554.112L553.86 59.668L554.787 60.0426ZM530.668 119.744V120.744H531.342L531.595 120.119L530.668 119.744ZM519.332 119.744L518.405 120.118L518.657 120.744H519.332V119.744ZM495.213 59.9148L496.141 59.5409L495.888 58.9148H495.213V59.9148ZM494.403 59.9148V58.9148H493.403V59.9148H494.403ZM494.403 120V121H495.403V120H494.403ZM479.233 120H478.233V121H479.233V120ZM479.233 33.7273H498.58V31.7273H479.233V33.7273ZM497.654 33.1064L523.563 96.345L525.414 95.5868L499.505 32.3482L497.654 33.1064ZM524.489 96.9659H525.511V94.9659H524.489V96.9659ZM526.437 96.345L552.346 33.1064L550.495 32.3482L524.586 95.5868L526.437 96.345ZM551.42 33.7273H570.767V31.7273H551.42V33.7273ZM569.767 32.7273V120H571.767V32.7273H569.767ZM570.767 119H555.597V121H570.767V119ZM556.597 120V60.0426H554.597V120H556.597ZM555.597 59.0426H554.787V61.0426H555.597V59.0426ZM553.86 59.668L529.74 119.37L531.595 120.119L555.714 60.4172L553.86 59.668ZM530.668 118.744H519.332V120.744H530.668V118.744ZM520.26 119.37L496.141 59.5409L494.286 60.2887L518.405 120.118L520.26 119.37ZM495.213 58.9148H494.403V60.9148H495.213V58.9148ZM493.403 59.9148V120H495.403V59.9148H493.403ZM494.403 119H479.233V121H494.403V119ZM480.233 120V32.7273H478.233V120H480.233Z" fill="black"/>
<path d="M486.233 32.7273H505.58L531.489 95.9659H532.511L558.42 32.7273H577.767V120H562.597V60.0426H561.787L537.668 119.744H526.332L502.213 59.9148H501.403V120H486.233V32.7273Z" fill="#2ca2f1"/>
<path d="M486.233 32.7273V31.7273H485.233V32.7273H486.233ZM505.58 32.7273L506.505 32.3482L506.251 31.7273H505.58V32.7273ZM531.489 95.9659L530.563 96.345L530.818 96.9659H531.489V95.9659ZM532.511 95.9659V96.9659H533.182L533.437 96.345L532.511 95.9659ZM558.42 32.7273V31.7273H557.749L557.495 32.3482L558.42 32.7273ZM577.767 32.7273H578.767V31.7273H577.767V32.7273ZM577.767 120V121H578.767V120H577.767ZM562.597 120H561.597V121H562.597V120ZM562.597 60.0426H563.597V59.0426H562.597V60.0426ZM561.787 60.0426V59.0426H561.112L560.86 59.668L561.787 60.0426ZM537.668 119.744V120.744H538.342L538.595 120.119L537.668 119.744ZM526.332 119.744L525.405 120.118L525.657 120.744H526.332V119.744ZM502.213 59.9148L503.141 59.5409L502.888 58.9148H502.213V59.9148ZM501.403 59.9148V58.9148H500.403V59.9148H501.403ZM501.403 120V121H502.403V120H501.403ZM486.233 120H485.233V121H486.233V120ZM486.233 33.7273H505.58V31.7273H486.233V33.7273ZM504.654 33.1064L530.563 96.345L532.414 95.5868L506.505 32.3482L504.654 33.1064ZM531.489 96.9659H532.511V94.9659H531.489V96.9659ZM533.437 96.345L559.346 33.1064L557.495 32.3482L531.586 95.5868L533.437 96.345ZM558.42 33.7273H577.767V31.7273H558.42V33.7273ZM576.767 32.7273V120H578.767V32.7273H576.767ZM577.767 119H562.597V121H577.767V119ZM563.597 120V60.0426H561.597V120H563.597ZM562.597 59.0426H561.787V61.0426H562.597V59.0426ZM560.86 59.668L536.74 119.37L538.595 120.119L562.714 60.4172L560.86 59.668ZM537.668 118.744H526.332V120.744H537.668V118.744ZM527.26 119.37L503.141 59.5409L501.286 60.2887L525.405 120.118L527.26 119.37ZM502.213 58.9148H501.403V60.9148H502.213V58.9148ZM500.403 59.9148V120H502.403V59.9148H500.403ZM501.403 119H486.233V121H501.403V119ZM487.233 120V32.7273H485.233V120H487.233Z" fill="black"/>
<path d="M585.396 32.7273H603.251L624.6 71.3352H625.453L646.802 32.7273H664.657L632.91 87.4432V120H617.143V87.4432L585.396 32.7273Z" fill="#2ca2f1"/>
<path d="M585.396 32.7273V31.7273H583.66L584.531 33.2291L585.396 32.7273ZM603.251 32.7273L604.126 32.2434L603.841 31.7273H603.251V32.7273ZM624.6 71.3352L623.725 71.8191L624.011 72.3352H624.6V71.3352ZM625.453 71.3352V72.3352H626.042L626.328 71.8191L625.453 71.3352ZM646.802 32.7273V31.7273H646.212L645.927 32.2434L646.802 32.7273ZM664.657 32.7273L665.522 33.2291L666.394 31.7273H664.657V32.7273ZM632.91 87.4432L632.045 86.9413L631.91 87.1741V87.4432H632.91ZM632.91 120V121H633.91V120H632.91ZM617.143 120H616.143V121H617.143V120ZM617.143 87.4432H618.143V87.1741L618.008 86.9413L617.143 87.4432ZM585.396 33.7273H603.251V31.7273H585.396V33.7273ZM602.376 33.2112L623.725 71.8191L625.476 70.8513L604.126 32.2434L602.376 33.2112ZM624.6 72.3352H625.453V70.3352H624.6V72.3352ZM626.328 71.8191L647.677 33.2112L645.927 32.2434L624.578 70.8513L626.328 71.8191ZM646.802 33.7273H664.657V31.7273H646.802V33.7273ZM663.792 32.2254L632.045 86.9413L633.775 87.945L665.522 33.2291L663.792 32.2254ZM631.91 87.4432V120H633.91V87.4432H631.91ZM632.91 119H617.143V121H632.91V119ZM618.143 120V87.4432H616.143V120H618.143ZM618.008 86.9413L586.261 32.2254L584.531 33.2291L616.278 87.945L618.008 86.9413Z" fill="black"/>
<path d="M594.396 32.7273H612.251L633.6 71.3352H634.453L655.802 32.7273H673.657L641.91 87.4432V120H626.143V87.4432L594.396 32.7273Z" fill="#2ca2f1"/>
<path d="M594.396 32.7273V31.7273H592.66L593.531 33.2291L594.396 32.7273ZM612.251 32.7273L613.126 32.2434L612.841 31.7273H612.251V32.7273ZM633.6 71.3352L632.725 71.8191L633.011 72.3352H633.6V71.3352ZM634.453 71.3352V72.3352H635.042L635.328 71.8191L634.453 71.3352ZM655.802 32.7273V31.7273H655.212L654.927 32.2434L655.802 32.7273ZM673.657 32.7273L674.522 33.2291L675.394 31.7273H673.657V32.7273ZM641.91 87.4432L641.045 86.9413L640.91 87.1741V87.4432H641.91ZM641.91 120V121H642.91V120H641.91ZM626.143 120H625.143V121H626.143V120ZM626.143 87.4432H627.143V87.1741L627.008 86.9413L626.143 87.4432ZM594.396 33.7273H612.251V31.7273H594.396V33.7273ZM611.376 33.2112L632.725 71.8191L634.476 70.8513L613.126 32.2434L611.376 33.2112ZM633.6 72.3352H634.453V70.3352H633.6V72.3352ZM635.328 71.8191L656.677 33.2112L654.927 32.2434L633.578 70.8513L635.328 71.8191ZM655.802 33.7273H673.657V31.7273H655.802V33.7273ZM672.792 32.2254L641.045 86.9413L642.775 87.945L674.522 33.2291L672.792 32.2254ZM640.91 87.4432V120H642.91V87.4432H640.91ZM641.91 119H626.143V121H641.91V119ZM627.143 120V87.4432H625.143V120H627.143ZM627.008 86.9413L595.261 32.2254L593.531 33.2291L625.278 87.945L627.008 86.9413Z" fill="black"/>
<path d="M240.5 28L209.5 82L214.5 91.5M240.5 28H251.5L283 82M240.5 28L267 73H236H256L246 55M283 82H230.5L246 55M283 82L277.5 91.5H214.5M246 55L241 45.5L214.5 91.5M203.5 89.5L194 105.5L199.5 115H210.5L219.5 99H264" stroke="black" strokeWidth="2"/>
<path d="M271 98.5L280.5 115H291L297 105.5L288 89.5" stroke="black" strokeWidth="2"/>
<path d="M48.5 28L17.5 82L22.5 91.5M48.5 28H59.5L91 82M48.5 28L75 73H44H64L54 55M91 82H38.5L54 55M91 82L85.5 91.5H22.5M54 55L49 45.5L22.5 91.5M11.5 89.5L2 105.5L7.5 115H18.5L27.5 99H72" stroke="black" strokeWidth="2"/>
<path d="M79 98.5L88.5 115H99L105 105.5L96 89.5" stroke="black" strokeWidth="2"/>
<path d="M27.5827 116V105.091H30.0401V106.945H30.168C30.3952 106.32 30.7717 105.832 31.2972 105.482C31.8228 105.126 32.4502 104.949 33.1793 104.949C33.918 104.949 34.5406 105.129 35.0472 105.489C35.5586 105.844 35.9184 106.329 36.1268 106.945H36.2404C36.4819 106.339 36.8891 105.856 37.462 105.496C38.0397 105.131 38.7238 104.949 39.5146 104.949C40.5183 104.949 41.3375 105.266 41.9719 105.901C42.6064 106.535 42.9237 107.461 42.9237 108.678V116H40.3455V109.075C40.3455 108.398 40.1656 107.903 39.8058 107.591C39.4459 107.274 39.0056 107.115 38.4847 107.115C37.8645 107.115 37.3791 107.309 37.0288 107.697C36.6831 108.081 36.5103 108.58 36.5103 109.196V116H33.989V108.969C33.989 108.405 33.8185 107.955 33.4776 107.619C33.1415 107.283 32.7011 107.115 32.1566 107.115C31.7873 107.115 31.4511 107.21 31.1481 107.399C30.8451 107.584 30.6036 107.847 30.4237 108.188C30.2437 108.524 30.1538 108.917 30.1538 109.366V116H27.5827ZM50.3615 116.213C49.2678 116.213 48.3232 115.986 47.5277 115.531C46.737 115.072 46.1286 114.423 45.7024 113.585C45.2763 112.742 45.0632 111.75 45.0632 110.609C45.0632 109.487 45.2763 108.502 45.7024 107.655C46.1333 106.803 46.7346 106.14 47.5064 105.666C48.2782 105.188 49.1849 104.949 50.2266 104.949C50.8989 104.949 51.5334 105.058 52.13 105.276C52.7313 105.489 53.2616 105.82 53.7209 106.27C54.1849 106.72 54.5495 107.293 54.8146 107.989C55.0798 108.68 55.2124 109.504 55.2124 110.46V111.249H46.2706V109.516H52.7479C52.7431 109.023 52.6366 108.585 52.4283 108.202C52.2199 107.813 51.9287 107.508 51.5547 107.286C51.1854 107.063 50.7545 106.952 50.2621 106.952C49.7365 106.952 49.2749 107.08 48.8771 107.335C48.4794 107.586 48.1693 107.918 47.9467 108.33C47.7289 108.737 47.6177 109.184 47.6129 109.672V111.185C47.6129 111.819 47.7289 112.364 47.9609 112.818C48.1929 113.268 48.5173 113.614 48.9339 113.855C49.3506 114.092 49.8383 114.21 50.397 114.21C50.7711 114.21 51.1096 114.158 51.4126 114.054C51.7157 113.945 51.9785 113.786 52.201 113.578C52.4235 113.37 52.5916 113.112 52.7053 112.804L55.1058 113.074C54.9543 113.708 54.6655 114.262 54.2393 114.736C53.8179 115.205 53.2782 115.569 52.62 115.83C51.9619 116.085 51.209 116.213 50.3615 116.213ZM60.5266 116.22C59.8353 116.22 59.2127 116.097 58.6587 115.851C58.1095 115.6 57.6739 115.231 57.3519 114.743C57.0347 114.255 56.8761 113.654 56.8761 112.939C56.8761 112.323 56.9897 111.814 57.217 111.412C57.4442 111.009 57.7544 110.688 58.1474 110.446C58.5404 110.205 58.9831 110.022 59.4755 109.899C59.9727 109.771 60.4864 109.679 61.0167 109.622C61.6559 109.556 62.1744 109.497 62.5721 109.445C62.9698 109.388 63.2586 109.303 63.4386 109.189C63.6232 109.071 63.7156 108.888 63.7156 108.642V108.599C63.7156 108.064 63.5569 107.65 63.2397 107.357C62.9225 107.063 62.4656 106.916 61.869 106.916C61.2392 106.916 60.7397 107.054 60.3704 107.328C60.0058 107.603 59.7596 107.927 59.6317 108.301L57.2312 107.96C57.4206 107.297 57.7331 106.743 58.1687 106.298C58.6043 105.848 59.137 105.512 59.7667 105.29C60.3964 105.062 61.0924 104.949 61.8548 104.949C62.3803 104.949 62.9035 105.01 63.4244 105.134C63.9452 105.257 64.421 105.46 64.8519 105.744C65.2828 106.024 65.6284 106.405 65.8888 106.888C66.154 107.371 66.2866 107.974 66.2866 108.699V116H63.815V114.501H63.7298C63.5735 114.804 63.3533 115.089 63.0692 115.354C62.7899 115.614 62.4371 115.825 62.011 115.986C61.5896 116.142 61.0948 116.22 60.5266 116.22ZM61.1942 114.331C61.7103 114.331 62.1578 114.229 62.5366 114.026C62.9154 113.817 63.2066 113.543 63.4102 113.202C63.6185 112.861 63.7227 112.489 63.7227 112.087V110.801C63.6422 110.867 63.5049 110.929 63.3107 110.986C63.1213 111.043 62.9083 111.092 62.6715 111.135C62.4348 111.178 62.2004 111.215 61.9684 111.249C61.7364 111.282 61.5352 111.31 61.3647 111.334C60.9812 111.386 60.6379 111.471 60.3349 111.589C60.0318 111.708 59.7927 111.874 59.6175 112.087C59.4424 112.295 59.3548 112.565 59.3548 112.896C59.3548 113.37 59.5276 113.727 59.8732 113.969C60.2189 114.21 60.6592 114.331 61.1942 114.331ZM71.4428 109.608V116H68.8718V105.091H71.3292V106.945H71.457C71.708 106.334 72.1081 105.848 72.6573 105.489C73.2113 105.129 73.8955 104.949 74.7099 104.949C75.4627 104.949 76.1185 105.11 76.6772 105.432C77.2406 105.754 77.6763 106.22 77.984 106.831C78.2965 107.442 78.4504 108.183 78.4457 109.054V116H75.8746V109.452C75.8746 108.723 75.6853 108.152 75.3065 107.74C74.9324 107.328 74.4139 107.122 73.7511 107.122C73.3013 107.122 72.9012 107.222 72.5508 107.42C72.2051 107.615 71.9329 107.896 71.734 108.266C71.5399 108.635 71.4428 109.082 71.4428 109.608Z" fill="black"/>
</svg>
