<svg width="9495" height="11358" viewBox="0 0 9495 11358" fill="none" xmlns="http://www.w3.org/2000/svg">
<g clip-path="url(#clip0_1132_267)">
<path d="M9279.55 0H215.446C96.4583 0 0 96.4663 0 215.463V11142.5C0 11261.5 96.4583 11358 215.446 11358H9279.55C9398.54 11358 9495 11261.5 9495 11142.5V215.463C9495 96.4663 9398.54 0 9279.55 0Z" fill="url(#paint0_linear_1132_267)"/>
<path fillRule="evenodd" clip-rule="evenodd" d="M11392.3 4189.5C11314.4 4189.5 11240.6 4171.88 11179 4136.64C11117.5 4101.38 11076.5 4054.39 11056 4001.51C10740.2 3070.4 10034.6 2230.32 9037.92 1592.94C8041.19 955.543 6798.36 547.258 5469.4 423.893C4144.51 300.527 2795.04 470.889 1605.53 905.61C416.023 1343.27 -564.298 2027.65 -1200.07 2870.67C-1721 3557.98 -2537.24 4110.2 -3525.77 4442.12C-4342.02 4718.22 -5055.73 5129.43 -5605.36 5637.58C-6154.99 6151.62 -6532.36 6747.88 -6700.53 7382.35C-6868.7 8016.79 -6827.69 8671.82 -6577.48 9291.58C-6327.27 9911.35 -5876.08 10481.2 -5260.81 10954.1C-4645.55 11427 -3882.62 11788.3 -3033.55 12008.6C-2750.53 12082 -1733.31 12328.7 -383.821 12225.9C1035.39 12117.3 1728.58 11706 2749.92 11377.1C5206.88 10589.9 5871.36 11479.9 9903.39 10910C12983.8 10475.3 13931.3 9767.42 14243.1 9506C15100.3 8786.37 15375.1 7916.93 15391.6 7858.18C15469.5 7599.7 15600.7 7126.79 15424.4 6530.53C15293.1 6092.87 15026.5 5678.71 14640.9 5326.24C14124.1 4853.33 13529.3 4606.59 13201.2 4489.1C12446.5 4221.81 11757.4 4189.5 11392.3 4189.5Z" fill="url(#paint1_linear_1132_267)"/>
<path fillRule="evenodd" clip-rule="evenodd" d="M10936.1 5527.96C10863.2 5527.96 10794.2 5511.48 10736.7 5478.51C10679.1 5445.55 10640.8 5401.61 10621.6 5352.16C10326.2 4481.42 9666.45 3695.84 8734.34 3099.78C7802.23 2503.72 6639.97 2121.91 5397.15 2006.55C4158.18 1891.18 2896.17 2050.5 1783.78 2457.02C671.382 2866.29 -245.387 3506.31 -839.945 4294.65C-1327.1 4937.39 -2090.44 5453.79 -3014.87 5764.18C-3778.21 6022.39 -4445.65 6406.93 -4959.65 6882.13C-5473.66 7362.83 -5826.56 7920.42 -5983.82 8513.73C-6141.1 9107.05 -6102.73 9719.59 -5868.74 10299.2C-5634.77 10878.7 -5212.82 11411.6 -4637.44 11853.9C-4062.06 12296.1 -3348.6 12633.9 -2554.57 12840C-2289.9 12908.6 -1338.6 13139.4 -76.6094 13043.2C1250.6 12941.6 1898.86 12557 2853.98 12249.4C5151.66 11513.3 5773.07 12345.5 9543.71 11812.7C12424.4 11406.1 13310.5 10744.1 13602 10499.7C14403.7 9826.72 14660.7 9013.65 14676.1 8958.72C14749 8717 14871.7 8274.77 14706.8 7717.16C14584 7307.89 14334.7 6920.59 13974.1 6590.96C13490.8 6148.74 12934.6 5918.01 12627.7 5808.12C11921.9 5558.17 11277.5 5527.96 10936.1 5527.96Z" fill="url(#paint2_linear_1132_267)"/>
<path fillRule="evenodd" clip-rule="evenodd" d="M10577 6494.7C10508.1 6494.7 10442.8 6479.09 10388.4 6447.87C10334 6416.64 10297.7 6375.01 10279.6 6328.18C10000.4 5503.32 9376.6 4759.14 8495.36 4194.5C7614.11 3629.85 6515.28 3268.18 5340.28 3158.89C4168.92 3049.61 2975.8 3200.52 1924.1 3585.62C872.411 3973.33 5.67139 4579.6 -556.439 5326.39C-1017.01 5935.26 -1738.69 6424.44 -2612.68 6718.47C-3334.36 6963.07 -3965.37 7327.36 -4451.32 7777.51C-4937.28 8232.86 -5270.91 8761.08 -5419.6 9323.12C-5568.29 9885.15 -5532.03 10465.4 -5310.81 11014.4C-5089.6 11563.5 -4690.67 12068.3 -4146.7 12487.2C-3602.71 12906.1 -2928.18 13226.2 -2177.49 13421.3C-1927.27 13486.4 -1027.89 13705 165.238 13613.9C1420.01 13517.6 2032.9 13153.3 2935.9 12861.9C5108.19 12164.5 5695.68 12953 9260.55 12448.2C11984.1 12063.1 12821.8 11436 13097.4 11204.4C13855.4 10566.9 14098.3 9796.69 14112.8 9744.64C14181.7 9515.66 14297.8 9096.74 14141.8 8568.53C14025.8 8180.82 13790.1 7813.93 13449.2 7501.7C12992.2 7082.76 12466.4 6864.19 12176.3 6760.1C11509 6523.32 10899.7 6494.7 10577 6494.7Z" fill="url(#paint3_linear_1132_267)"/>
<path fillRule="evenodd" clip-rule="evenodd" d="M10577 7572.01C10508.1 7572.01 10442.8 7556.41 10388.4 7525.18C10334 7493.96 10297.7 7452.32 10279.6 7405.49C10000.4 6580.64 9376.6 5836.46 8495.36 5271.82C7614.11 4707.17 6515.28 4345.5 5340.28 4236.21C4168.92 4126.92 2975.8 4277.84 1924.1 4662.94C872.411 5050.65 5.67139 5656.91 -556.439 6403.71C-1017.01 7012.58 -1738.69 7501.76 -2612.68 7795.79C-3334.36 8040.39 -3965.37 8404.67 -4451.32 8854.82C-4937.28 9310.17 -5270.91 9838.4 -5419.6 10400.4C-5568.29 10962.5 -5532.03 11542.7 -5310.81 12091.8C-5089.6 12640.8 -4690.67 13145.6 -4146.7 13564.5C-3602.71 13983.4 -2928.18 14303.5 -2177.49 14498.6C-1927.27 14563.7 -1027.89 14782.3 165.238 14691.2C1420.01 14594.9 2032.9 14230.6 2935.9 13939.2C5108.19 13241.9 5695.68 14030.3 9260.55 13525.5C11984.1 13140.4 12821.8 12513.3 13097.4 12281.7C13855.4 11644.2 14098.3 10874 14112.8 10822C14181.7 10593 14297.8 10174.1 14141.8 9645.85C14025.8 9258.14 13790.1 8891.25 13449.2 8579.01C12992.2 8160.08 12466.4 7941.5 12176.3 7837.42C11509 7600.64 10899.7 7572.01 10577 7572.01Z" fill="url(#paint4_linear_1132_267)"/>
<path fillRule="evenodd" clip-rule="evenodd" d="M10577 8680.11C10508.1 8680.11 10442.8 8664.51 10388.4 8633.28C10334 8602.05 10297.7 8560.42 10279.6 8513.59C10000.4 7688.74 9376.6 6944.55 8495.36 6379.92C7614.11 5815.27 6515.28 5453.59 5340.28 5344.31C4168.92 5235.02 2975.8 5385.94 1924.1 5771.03C872.411 6158.74 5.67139 6765.01 -556.439 7511.81C-1017.01 8120.68 -1738.69 8609.86 -2612.68 8903.89C-3334.36 9148.48 -3965.37 9512.77 -4451.32 9962.92C-4937.28 10418.3 -5270.91 10946.5 -5419.6 11508.5C-5568.29 12070.6 -5532.03 12650.8 -5310.81 13199.9C-5089.6 13748.9 -4690.67 14253.7 -4146.7 14672.6C-3602.71 15091.5 -2928.18 15411.6 -2177.49 15606.8C-1927.27 15671.7 -1027.89 15890.4 165.238 15799.3C1420.01 15703 2032.9 15338.7 2935.9 15047.3C5108.19 14350 5695.68 15138.4 9260.55 14633.6C11984.1 14248.5 12821.8 13621.4 13097.4 13389.8C13855.4 12752.3 14098.3 11982.1 14112.8 11930.1C14181.7 11701.1 14297.8 11282.2 14141.8 10753.9C14025.8 10366.2 13790.1 9999.35 13449.2 9687.11C12992.2 9268.17 12466.4 9049.6 12176.3 8945.52C11509 8708.74 10899.7 8680.11 10577 8680.11Z" fill="url(#paint5_linear_1132_267)"/>
<path fillRule="evenodd" clip-rule="evenodd" d="M10577 9865.16C10508.1 9865.16 10442.8 9849.56 10388.4 9818.33C10334 9787.1 10297.7 9745.47 10279.6 9698.64C10000.4 8873.78 9376.6 8129.6 8495.36 7564.97C7614.11 7000.31 6515.28 6638.64 5340.28 6529.36C4168.92 6420.07 2975.8 6570.99 1924.1 6956.08C872.411 7343.79 5.67139 7950.06 -556.439 8696.86C-1017.01 9305.73 -1738.69 9794.91 -2612.68 10088.9C-3334.36 10333.5 -3965.37 10697.8 -4451.32 11148C-4937.28 11603.3 -5270.91 12131.5 -5419.6 12693.6C-5568.29 13255.6 -5532.03 13835.9 -5310.81 14384.9C-5089.6 14933.9 -4690.67 15438.7 -4146.7 15857.6C-3602.71 16276.6 -2928.18 16596.7 -2177.49 16791.8C-1927.27 16856.8 -1027.89 17075.5 165.238 16984.4C1420.01 16888 2032.9 16523.7 2935.9 16232.4C5108.19 15535.1 5695.68 16323.4 9260.55 15818.6C11984.1 15433.5 12821.8 14806.4 13097.4 14574.9C13855.4 13937.4 14098.3 13167.2 14112.8 13115.1C14181.7 12886.1 14297.8 12467.2 14141.8 11939C14025.8 11551.3 13790.1 11184.4 13449.2 10872.2C12992.2 10453.2 12466.4 10234.6 12176.3 10130.6C11509 9893.79 10899.7 9865.16 10577 9865.16Z" fill="url(#paint6_linear_1132_267)"/>
<path fillRule="evenodd" clip-rule="evenodd" d="M10577 10850.1C10508.1 10850.1 10442.8 10834.5 10388.4 10803.3C10334 10772.1 10297.7 10730.4 10279.6 10683.6C10000.4 9858.76 9376.6 9114.58 8495.36 8549.94C7614.11 7985.29 6515.28 7623.62 5340.28 7514.33C4168.92 7405.05 2975.8 7555.96 1924.1 7941.06C872.411 8328.77 5.67139 8935.04 -556.439 9681.83C-1017.01 10290.7 -1738.69 10779.9 -2612.68 11073.9C-3334.36 11318.5 -3965.37 11682.8 -4451.32 12132.9C-4937.28 12588.3 -5270.91 13116.5 -5419.6 13678.6C-5568.29 14240.6 -5532.03 14820.9 -5310.81 15369.9C-5089.6 15918.9 -4690.67 16423.7 -4146.7 16842.6C-3602.71 17261.5 -2928.18 17581.7 -2177.49 17776.8C-1927.27 17841.8 -1027.89 18060.5 165.238 17969.3C1420.01 17873 2032.9 17508.7 2935.9 17217.4C5108.19 16520 5695.68 17308.3 9260.55 16803.5C11984.1 16418.5 12821.8 15791.5 13097.4 15559.8C13855.4 14922.3 14098.3 14152.1 14112.8 14100.1C14181.7 13871.1 14297.8 13452.2 14141.8 12924C14025.8 12536.3 13790.1 12169.4 13449.2 11857.1C12992.2 11438.2 12466.4 11219.6 12176.3 11115.5C11509 10878.8 10899.7 10850.1 10577 10850.1Z" fill="url(#paint7_linear_1132_267)"/>
</g>
<defs>
<linearGradient id="paint0_linear_1132_267" x1="1888.21" y1="13601" x2="1318.59" y2="-955.343" gradientUnits="userSpaceOnUse">
<stop stop-color="#A945F7"/>
<stop offset="0.0704912" stop-color="#107458"/>
<stop offset="0.892007" stop-color="#39A388"/>
</linearGradient>
<linearGradient id="paint1_linear_1132_267" x1="7689.53" y1="16689" x2="8022.24" y2="-2734.31" gradientUnits="userSpaceOnUse">
<stop stop-color="#A945F7"/>
<stop offset="0.536458" stop-color="#107458"/>
<stop offset="0.86925" stop-color="#40B498"/>
</linearGradient>
<linearGradient id="paint2_linear_1132_267" x1="7473.38" y1="17216.9" x2="7784.49" y2="-946.835" gradientUnits="userSpaceOnUse">
<stop/>
<stop offset="0.536458" stop-color="#107458"/>
<stop offset="0.86925" stop-color="#40B498"/>
</linearGradient>
<linearGradient id="paint3_linear_1132_267" x1="7303.21" y1="17567.5" x2="7598.5" y2="361.18" gradientUnits="userSpaceOnUse">
<stop stop-color="#097358"/>
<stop offset="0.536458" stop-color="#39A388"/>
<stop offset="0.86925" stop-color="#69D3B8"/>
</linearGradient>
<linearGradient id="paint4_linear_1132_267" x1="7303.21" y1="18644.8" x2="7598.5" y2="1438.5" gradientUnits="userSpaceOnUse">
<stop stop-color="#097358"/>
<stop offset="0.536458" stop-color="#39A388"/>
<stop offset="0.86925" stop-color="#69D3B8"/>
</linearGradient>
<linearGradient id="paint5_linear_1132_267" x1="7303.21" y1="19752.9" x2="7598.5" y2="2546.59" gradientUnits="userSpaceOnUse">
<stop stop-color="#097358"/>
<stop offset="0.536458" stop-color="#39A388"/>
<stop offset="0.86925" stop-color="#69D3B8"/>
</linearGradient>
<linearGradient id="paint6_linear_1132_267" x1="7303.21" y1="20938" x2="7598.5" y2="3731.64" gradientUnits="userSpaceOnUse">
<stop stop-color="#097358"/>
<stop offset="0.557292" stop-color="#39A388"/>
<stop offset="0.892007" stop-color="#69D3B8"/>
</linearGradient>
<linearGradient id="paint7_linear_1132_267" x1="6185.43" y1="17389.4" x2="6286.23" y2="-2801.66" gradientUnits="userSpaceOnUse">
<stop stop-color="#097358"/>
<stop offset="0.28125" stop-color="#39A388"/>
<stop offset="0.6875" stop-color="#69D3B8"/>
</linearGradient>
<clipPath id="clip0_1132_267">
<rect width="9495" height="11358" fill="white"/>
</clipPath>
</defs>
</svg>
