<svg xmlns="http://www.w3.org/2000/svg"  viewBox="0 0 48 48" width="48px" height="48px"><path fill="#6d4c41" d="M24 5A19 19 0 1 0 24 43A19 19 0 1 0 24 5Z"/><path fill="#8d6e63" d="M18 23A1 1 0 1 0 18 25 1 1 0 1 0 18 23zM17.5 17A1.5 1.5 0 1 0 17.5 20 1.5 1.5 0 1 0 17.5 17zM20 13A1 1 0 1 0 20 15 1 1 0 1 0 20 13zM18 8A1 1 0 1 0 18 10 1 1 0 1 0 18 8zM22.5 7A1.5 1.5 0 1 0 22.5 10 1.5 1.5 0 1 0 22.5 7zM27 9A1 1 0 1 0 27 11 1 1 0 1 0 27 9zM23.5 18A1.5 1.5 0 1 0 23.5 21 1.5 1.5 0 1 0 23.5 18zM18.5 27A1.5 1.5 0 1 0 18.5 30 1.5 1.5 0 1 0 18.5 27zM22.5 24A1.5 1.5 0 1 0 22.5 27 1.5 1.5 0 1 0 22.5 24zM28.5 15A1.5 1.5 0 1 0 28.5 18 1.5 1.5 0 1 0 28.5 15zM32 19A1 1 0 1 0 32 21 1 1 0 1 0 32 19zM30 29A1 1 0 1 0 30 31 1 1 0 1 0 30 29zM27.5 22A1.5 1.5 0 1 0 27.5 25 1.5 1.5 0 1 0 27.5 22zM26.5 38A1.5 1.5 0 1 0 26.5 41 1.5 1.5 0 1 0 26.5 38zM22 39A1 1 0 1 0 22 41 1 1 0 1 0 22 39zM19.5 32A1.5 1.5 0 1 0 19.5 35 1.5 1.5 0 1 0 19.5 32zM25.5 28A1.5 1.5 0 1 0 25.5 31 1.5 1.5 0 1 0 25.5 28zM24.5 33A1.5 1.5 0 1 0 24.5 36 1.5 1.5 0 1 0 24.5 33zM29.5 34A1.5 1.5 0 1 0 29.5 37 1.5 1.5 0 1 0 29.5 34zM24.5 12A1.5 1.5 0 1 0 24.5 15 1.5 1.5 0 1 0 24.5 12zM30 7A1 1 0 1 0 30 9 1 1 0 1 0 30 7zM16.5 36A1.5 1.5 0 1 0 16.5 39 1.5 1.5 0 1 0 16.5 36z"/><path fill="#795548" d="M13.5 11A1.5 1.5 0 1 0 13.5 14 1.5 1.5 0 1 0 13.5 11zM8 21A1 1 0 1 0 8 23 1 1 0 1 0 8 21zM11.5 16A1.5 1.5 0 1 0 11.5 19 1.5 1.5 0 1 0 11.5 16zM13 24A1 1 0 1 0 13 26 1 1 0 1 0 13 24zM33.5 11A1.5 1.5 0 1 0 33.5 14 1.5 1.5 0 1 0 33.5 11zM33.5 25A1.5 1.5 0 1 0 33.5 28 1.5 1.5 0 1 0 33.5 25zM38 15A1 1 0 1 0 38 17 1 1 0 1 0 38 15zM39.5 20A1.5 1.5 0 1 0 39.5 23 1.5 1.5 0 1 0 39.5 20zM37.5 29A1.5 1.5 0 1 0 37.5 32 1.5 1.5 0 1 0 37.5 29zM33.5 36A1.5 1.5 0 1 0 33.5 39 1.5 1.5 0 1 0 33.5 36zM9.5 28A1.5 1.5 0 1 0 9.5 31 1.5 1.5 0 1 0 9.5 28zM12.5 33A1.5 1.5 0 1 0 12.5 36 1.5 1.5 0 1 0 12.5 33z"/></svg>